<svg width="70" height="79" viewBox="0 0 70 79" fill="none" xmlns="http://www.w3.org/2000/svg">
<path d="M56.1378 17.1095L52.3662 21.9535C57.7122 26.0974 61.3965 32.0198 62.7508 38.6468C64.1052 45.2739 63.04 52.1669 59.7484 58.076C56.4569 63.9851 51.1568 68.5191 44.8093 70.856C38.4617 73.1928 31.4869 73.1778 25.1495 70.8136C18.8121 68.4493 13.5317 63.8925 10.2657 57.9692C6.99961 52.0459 5.9642 45.1484 7.34714 38.5273C8.73009 31.9061 12.4398 25.9997 17.8037 21.879C23.1677 17.7582 29.8306 15.6959 36.5845 16.0661L31.2779 21.633L35.2142 25.3895L43.5909 16.5891L47.3436 12.6477L43.4136 8.90631L34.6195 0.52832L30.8643 4.46965L36.5921 9.9259C27.8066 9.52583 19.2016 12.506 12.5453 18.2539C5.88905 24.0019 1.68719 32.081 0.803205 40.831C-0.0807806 49.5811 2.42026 58.3374 7.79236 65.3005C13.1645 72.2636 20.9995 76.9047 29.6875 78.2699C31.4802 78.5532 33.2924 78.6957 35.1073 78.6961C42.2724 78.6782 49.2533 76.4243 55.0761 72.2488C60.8988 68.0733 65.273 62.1844 67.5885 55.4037C69.904 48.623 70.0452 41.2887 67.9925 34.4238C65.9398 27.559 61.7955 21.5061 56.1378 17.1095Z" fill="#FF6875"/>
<path d="M38.4041 61.8335V58.3008C42.5931 57.8331 46.6677 55.188 46.6677 50.1642C46.6677 43.3389 40.3213 42.5569 35.686 41.9861C32.7228 41.6316 30.4535 41.2205 30.4535 39.4252C30.4535 36.9284 33.9737 36.6594 35.4823 36.6594C37.7277 36.6594 40.1239 37.7154 40.9386 39.0619L41.1749 39.4541L45.8266 37.2993L45.5965 36.8303C44.9061 35.4653 43.8859 34.2943 42.6284 33.4234C41.3709 32.5524 39.9159 32.0092 38.3953 31.843V28.7314H32.9516V31.8279C27.8763 32.5822 24.8615 35.3934 24.8615 39.4239C24.8615 45.9953 30.8282 46.6617 35.1819 47.1507C39.0616 47.6083 40.8669 48.5663 40.8669 50.168C40.8669 53.2192 36.6415 53.4568 35.3465 53.4568C32.4638 53.4568 29.6891 52.0186 28.8795 50.1076L28.6796 49.6362L23.6282 51.7772L23.8293 52.2487C25.3267 55.755 28.5589 57.9513 32.9579 58.4705V61.8335H38.4041Z" fill="#FF6875"/>
</svg>
