<svg width="101" height="67" viewBox="0 0 101 67" fill="none" xmlns="http://www.w3.org/2000/svg">
<path d="M100.879 34.5227C100.879 34.5039 100.879 34.485 100.879 34.4662C100.87 33.8584 100.622 33.2785 100.189 32.8524C99.7552 32.4264 99.171 32.1886 98.5632 32.1906H97.9547L88.5433 14.0115C88.3474 13.6343 88.0513 13.3184 87.6876 13.0986C87.3238 12.8788 86.9065 12.7636 86.4815 12.7656H70.4232L71.0355 7.90904C71.1357 6.98041 71.0377 6.04107 70.7479 5.15314C70.4581 4.2652 69.9832 3.44892 69.3544 2.75823C68.7256 2.06754 67.9574 1.51819 67.1005 1.14652C66.2436 0.774845 65.3176 0.589318 64.3836 0.602189H14.5431C13.9342 0.605444 13.3481 0.834151 12.8979 1.24417C12.4477 1.65419 12.1654 2.21645 12.1054 2.82241L11.6025 6.82282H40.0027C40.4378 6.82057 40.8688 6.90607 41.2701 7.0742C41.6713 7.24233 42.0345 7.48963 42.338 7.80134C42.6415 8.11305 42.879 8.48275 43.0364 8.88835C43.1937 9.29395 43.2677 9.72711 43.2538 10.1619C43.2262 11.0538 42.8537 11.9001 42.2147 12.5229C41.5758 13.1456 40.7202 13.4963 39.828 13.5011H30.3562V13.5149H2.54692C1.91662 13.5181 1.3121 13.7655 0.860349 14.2051C0.408599 14.6446 0.144773 15.2422 0.124292 15.8722C0.114137 16.1799 0.166191 16.4865 0.277336 16.7736C0.38848 17.0607 0.55643 17.3225 0.771126 17.5432C0.985822 17.7638 1.24285 17.9389 1.52681 18.0579C1.81077 18.1769 2.11583 18.2374 2.42371 18.2357H39.2471C40.0842 18.3629 40.8457 18.7926 41.3873 19.4433C41.929 20.0941 42.2133 20.9209 42.1865 21.7672C42.1564 22.7181 41.7605 23.6206 41.0813 24.2868C40.402 24.9529 39.4919 25.3311 38.5406 25.3426H13.159C12.5209 25.3459 11.9091 25.5969 11.4525 26.0425C10.9959 26.4881 10.7301 27.0936 10.7112 27.7313C10.7007 28.0422 10.7531 28.352 10.8652 28.6422C10.9773 28.9324 11.1469 29.1969 11.3637 29.42C11.5806 29.643 11.8402 29.82 12.1271 29.9403C12.4139 30.0606 12.7222 30.1217 13.0332 30.12H38.1219C38.9671 30.2365 39.7394 30.661 40.2907 31.3121C40.8421 31.9632 41.1335 32.7949 41.1091 33.6477C41.0791 34.6031 40.6798 35.5097 39.9952 36.1768C39.3106 36.8438 38.3939 37.2194 37.438 37.2245H8.65943H6.24058C5.60255 37.2278 4.99074 37.4787 4.53411 37.9243C4.07747 38.3699 3.8117 38.9754 3.79281 39.6131C3.78231 39.924 3.83469 40.2339 3.94682 40.524C4.05895 40.8142 4.22851 41.0787 4.44534 41.3018C4.66217 41.5248 4.92181 41.7018 5.20869 41.8221C5.49557 41.9424 5.80378 42.0035 6.11486 42.0018H8.20181L7.38589 50.5433C7.28581 51.4718 7.38395 52.411 7.67384 53.2988C7.96372 54.1865 8.43874 55.0027 9.06749 55.6932C9.69625 56.3838 10.4644 56.933 11.3212 57.3046C12.178 57.6762 13.1039 57.8617 14.0377 57.8488H15.8393C16.2621 60.269 17.5277 62.4614 19.412 64.0379C21.2963 65.6143 23.6778 66.473 26.1345 66.4619C28.6334 66.4445 31.0534 65.5848 33.0033 64.0219C34.9532 62.4589 36.3189 60.284 36.8798 57.8488H59.3473C61.1407 57.8329 62.8709 57.1841 64.2328 56.0171C65.4854 57.2104 67.1544 57.8677 68.8844 57.8488H69.254C69.6768 60.269 70.9424 62.4614 72.8267 64.0379C74.711 65.6143 77.0925 66.473 79.5492 66.4619C82.0481 66.4445 84.4681 65.5848 86.418 64.0219C88.3679 62.4589 89.7337 60.284 90.2945 57.8488H91.7743C93.6816 57.8121 95.5099 57.0806 96.9161 55.7915C98.3223 54.5024 99.2097 52.7444 99.4118 50.8475L100.865 34.7553C100.865 34.7339 100.865 34.7126 100.865 34.6899C100.865 34.6673 100.871 34.6246 100.873 34.5906C100.874 34.5567 100.879 34.5416 100.879 34.5227ZM26.259 61.6883C25.4824 61.6918 24.713 61.5387 23.9969 61.2383C23.2807 60.938 22.6323 60.4964 22.0905 59.94C21.5487 59.3836 21.1245 58.7238 20.8432 58C20.5619 57.2761 20.4293 56.5029 20.4532 55.7267C20.5046 54.1349 21.1703 52.6249 22.3109 51.5134C23.4515 50.4019 24.9782 49.7753 26.5708 49.765C27.3474 49.7616 28.1167 49.9147 28.8329 50.2151C29.5491 50.5154 30.1974 50.957 30.7393 51.5134C31.2811 52.0697 31.7053 52.7295 31.9866 53.4534C32.2679 54.1773 32.4005 54.9504 32.3765 55.7267C32.3252 57.3185 31.6594 58.8285 30.5189 59.94C29.3783 61.0515 27.8516 61.6781 26.259 61.6883V61.6883ZM79.6762 61.6883C78.8996 61.6918 78.1303 61.5387 77.4141 61.2383C76.6979 60.938 76.0496 60.4964 75.5077 59.94C74.9659 59.3836 74.5417 58.7238 74.2604 58C73.9791 57.2761 73.8465 56.5029 73.8705 55.7267C73.9218 54.1349 74.5876 52.6249 75.7282 51.5134C76.8687 50.4019 78.3954 49.7753 79.988 49.765C80.7646 49.7616 81.534 49.9147 82.2501 50.2151C82.9663 50.5154 83.6147 50.957 84.1565 51.5134C84.6983 52.0697 85.1225 52.7295 85.4038 53.4534C85.6851 54.1773 85.8177 54.9504 85.7938 55.7267C85.7424 57.3185 85.0767 58.8285 83.9361 59.94C82.7955 61.0515 81.2688 61.6781 79.6762 61.6883V61.6883ZM94.6658 50.5382C94.5859 51.2226 94.2625 51.8554 93.7548 52.3212C93.247 52.7869 92.5887 53.0546 91.9 53.0753H90.3008C89.773 50.7724 88.4771 48.7177 86.6263 47.2492C84.7756 45.7806 82.4801 44.9858 80.1175 44.9952C77.7126 45.0119 75.378 45.8086 73.4646 47.2657C71.5512 48.7227 70.1623 50.7614 69.5067 53.0753H69.0152C68.7305 53.0817 68.4476 53.028 68.1851 52.9178C67.9225 52.8075 67.6861 52.6431 67.4914 52.4353C67.3008 52.2201 67.1575 51.9672 67.0708 51.693C66.9842 51.4188 66.9562 51.1294 66.9885 50.8437L69.9958 17.5279H76.9016L75.8078 29.6599C75.7075 30.5885 75.8055 31.5278 76.0953 32.4158C76.3851 33.3037 76.8601 34.12 77.4889 34.8107C78.1177 35.5014 78.8859 36.0507 79.7428 36.4224C80.5997 36.7941 81.5257 36.9796 82.4597 36.9667H95.8904L94.6658 50.5382Z" fill="#FF6875"/>
</svg>
