<svg width="69" height="90" viewBox="0 0 69 90" fill="none" xmlns="http://www.w3.org/2000/svg">
<path d="M0.577881 70.8014V89.3664H68.2455V70.8014C68.2428 68.7316 67.4194 66.7473 65.9559 65.2838C64.4923 63.8202 62.5081 62.9968 60.4383 62.9941H8.3851C6.31532 62.9968 4.33106 63.8202 2.8675 65.2838C1.40394 66.7473 0.580542 68.7316 0.577881 70.8014H0.577881ZM5.78269 70.8014C5.78369 70.1115 6.05819 69.4501 6.54602 68.9623C7.03385 68.4744 7.69521 68.2 8.3851 68.199H10.9875V84.1654H5.78269V70.8014ZM16.1936 68.199H22.9234L34.4117 79.6873L45.9 68.199H52.626V84.1654H16.1936V68.199ZM63.0407 70.8014V84.1616H57.8359V68.1952H60.4383C61.1288 68.1962 61.7907 68.4712 62.2787 68.9599C62.7666 69.4485 63.0407 70.1108 63.0407 70.8014ZM38.5391 68.199L34.4117 72.3264L30.2843 68.199H38.5391Z" fill="#FF6875"/>
<path d="M53.8832 52.5796H57.8396V47.3748H60.442C62.5118 47.3721 64.4961 46.5487 65.9596 45.0852C67.4232 43.6216 68.2466 41.6374 68.2493 39.5676V34.3628C68.2489 25.389 64.6838 16.7829 58.3381 10.4377C51.9925 4.09249 43.3861 0.527987 34.4123 0.52832C25.4385 0.528654 16.8324 4.09379 10.4872 10.4395C4.14205 16.7851 0.577547 25.3915 0.577881 34.3653L0.577881 39.5701C0.580542 41.6399 1.40394 43.6241 2.8675 45.0877C4.33106 46.5512 6.31532 47.3746 8.3851 47.3773H12.3277C13.7751 51.4765 16.3351 55.0918 19.721 57.8184C23.1068 60.545 27.1849 62.2751 31.4984 62.8152C35.812 63.3552 40.1907 62.6837 44.1442 60.8759C48.0978 59.0682 51.47 56.1955 53.8832 52.5796ZM60.442 42.1687H57.6888C57.7857 41.3046 57.8344 40.4358 57.8346 39.5663V34.3615C57.8344 33.492 57.7857 32.6232 57.6888 31.7591H60.437C61.1269 31.7601 61.7883 32.0346 62.2761 32.5224C62.7639 33.0102 63.0384 33.6716 63.0394 34.3615V39.5663C63.0398 40.2571 62.7658 40.9197 62.2779 41.4086C61.7899 41.8975 61.1278 42.1727 60.437 42.1737L60.442 42.1687ZM34.4117 5.73628C40.6694 5.74433 46.7527 7.79888 51.7339 11.5866C56.7151 15.3743 60.3208 20.6873 62.001 26.7152C61.4867 26.6104 60.9631 26.5578 60.4383 26.558H56.4944C54.8799 21.9913 51.8892 18.0374 47.9343 15.2409C43.9794 12.4443 39.2548 10.9427 34.4111 10.9427C29.5673 10.9427 24.8427 12.4443 20.8878 15.2409C16.9329 18.0374 13.9422 21.9913 12.3277 26.558H8.3851C7.86024 26.5578 7.3367 26.6104 6.8224 26.7152C8.50259 20.6873 12.1082 15.3743 17.0894 11.5866C22.0706 7.79888 28.154 5.74433 34.4117 5.73628ZM49.3573 23.9607C47.6745 26.3646 45.4382 28.3283 42.837 29.6863C40.2357 31.0442 37.346 31.7565 34.4117 31.7629H16.3796C16.9007 28.1443 18.4987 24.7664 20.9658 22.0685C23.433 19.3706 26.6549 17.4777 30.2126 16.636C33.7702 15.7943 37.4988 16.0428 40.9133 17.3491C44.3278 18.6555 47.27 20.9592 49.3573 23.9607ZM8.3851 42.1737C7.69521 42.1727 7.03385 41.8982 6.54602 41.4104C6.05819 40.9226 5.78369 40.2612 5.78269 39.5713V34.3665C5.78369 33.6766 6.05819 33.0153 6.54602 32.5274C7.03385 32.0396 7.69521 31.7651 8.3851 31.7641H11.1384C11.0415 32.6282 10.9928 33.497 10.9925 34.3665V39.5713C10.9928 40.4408 11.0415 41.3097 11.1384 42.1737H8.3851ZM16.1923 39.5713V36.9689H34.4117C37.7072 36.9628 40.9645 36.264 43.9725 34.9177C46.9804 33.5714 49.6717 31.6077 51.8717 29.1542C52.3775 30.8449 52.6337 32.6005 52.6323 34.3653V39.5701C52.6351 42.2712 52.0338 44.9387 50.8722 47.3773H42.2189L39.9283 45.0917C38.4639 46.5558 36.478 47.3783 34.4073 47.3783C32.3366 47.3783 30.3506 46.5558 28.8863 45.0917L25.2065 48.7715C27.4213 50.9863 30.3607 52.328 33.4851 52.5501C36.6095 52.7723 39.7092 51.8601 42.2151 49.981V52.5796H47.1434C44.5821 55.0886 41.337 56.7857 37.8152 57.4578C34.2933 58.13 30.6513 57.7474 27.346 56.3581C24.0407 54.9687 21.2191 52.6344 19.2351 49.6479C17.2512 46.6613 16.1931 43.1555 16.1936 39.5701L16.1923 39.5713Z" fill="#FF6875"/>
</svg>
